<?xml version="1.0" encoding="utf-8"?>
<!-- Generator: Adobe Illustrator 23.0.1, SVG Export Plug-In . SVG Version: 6.00 Build 0)  -->
<svg version="1.1" id="Layer_1" xmlns="http://www.w3.org/2000/svg" xmlns:xlink="http://www.w3.org/1999/xlink" x="0px" y="0px"
	 viewBox="0 0 480 640" style="enable-background:new 0 0 480 640;" xml:space="preserve">
<style type="text/css">
	.st0{stroke:#000000;stroke-width:14;stroke-miterlimit:10;}
	.st1{fill:#FFFFFF;}
	.st2{fill:none;stroke:#F2F2F2;stroke-width:5;stroke-miterlimit:10;}
	.st3{fill:none;stroke:#FFFFFF;stroke-width:18;stroke-miterlimit:10;}
</style>
<circle class="st0" cx="240.5" cy="247.5" r="192.5"/>
<path class="st1" d="M142.5,354L142.5,354c-14.08,0-25.5-11.42-25.5-25.5v-157c0-14.08,11.42-25.5,25.5-25.5h0
	c14.08,0,25.5,11.42,25.5,25.5v157C168,342.58,156.58,354,142.5,354z"/>
<path class="st1" d="M240.5,313L240.5,313c-14.08,0-25.5-11.42-25.5-25.5v-77c0-14.08,11.42-25.5,25.5-25.5h0
	c14.08,0,25.5,11.42,25.5,25.5v77C266,301.58,254.58,313,240.5,313z"/>
<path class="st1" d="M338.5,354L338.5,354c-14.08,0-25.5-11.42-25.5-25.5v-157c0-14.08,11.42-25.5,25.5-25.5h0
	c14.08,0,25.5,11.42,25.5,25.5v157C364,342.58,352.58,354,338.5,354z"/>
<circle class="st2" cx="240.5" cy="247.5" r="178"/>
<path class="st3" d="M406.71,183.68c-3.4,3.26-6.9,6.41-10.49,9.47c-42.01,35.77-96.47,57.35-155.98,57.35
	c-60.26,0-115.34-22.14-157.57-58.72"/>
<path class="st3" d="M82.68,191.78c-2.91-2.52-5.75-5.1-8.53-7.75"/>
</svg>
